<svg xmlns="http://www.w3.org/2000/svg" viewBox="0 0 24 24" id="philipp-plein"><path d="M6.839 22.5c-.677 0-1.13-.26-1.468-.84-1.123-1.943-2.054-3.506-2.822-4.798C1.46 15.033.673 13.711.13 12.634a1.385 1.385 0 0 1 .032-1.24c.043-.076 4.299-7.553 5.347-9.181.221-.344.716-.694 1.229-.697 3.494-.02 6.986-.02 10.482 0 .484.002 1.028.308 1.265.711.928 1.578 1.849 3.161 2.77 4.745.84 1.445 1.68 2.89 2.525 4.331.293.501.292.946-.004 1.445-.601 1.017-5.113 8.792-5.225 8.992-.287.511-.719.759-1.322.759h-.014c-.944-.007-8.745-.018-10.344.001h-.032zm-.103-1.503c.013 0 .035.003.118.003 1.606-.019 9.425-.007 10.372-.001.157-.244 4.549-7.809 5.236-8.976-.855-1.461-1.68-2.88-2.504-4.298-.92-1.581-1.839-3.163-2.767-4.74-3.468.01-6.956.01-10.444.03-.831 1.336-4.012 6.89-5.231 9.034.519 1.015 1.279 2.294 2.322 4.045.771 1.297 1.704 2.864 2.831 4.813a.492.492 0 0 0 .062.089l.005.001zm-5.269-8.861z"></path><path d="M9.25 14H7c-1.654 0-3-1.346-3-3s1.346-3 3-3h3.25a.75.75 0 0 1 0 1.5H7c-.827 0-1.5.673-1.5 1.5s.673 1.5 1.5 1.5h2.25a.75.75 0 0 1 0 1.5z"></path><path d="M9.25 18a.75.75 0 0 1-.75-.75v-8.5a.75.75 0 0 1 1.5 0v8.5a.75.75 0 0 1-.75.75z"></path><path d="M10.25 18h-2a.75.75 0 0 1 0-1.5h2a.75.75 0 0 1 0 1.5zM17 14h-2.25a.75.75 0 0 1 0-1.5H17c.827 0 1.5-.673 1.5-1.5s-.673-1.5-1.5-1.5h-3.25a.75.75 0 0 1 0-1.5H17c1.654 0 3 1.346 3 3s-1.346 3-3 3z"></path><path d="M14.75 18a.75.75 0 0 1-.75-.75v-8.5a.75.75 0 0 1 1.5 0v8.5a.75.75 0 0 1-.75.75z"></path><path d="M15.75 18h-2a.75.75 0 0 1 0-1.5h2a.75.75 0 0 1 0 1.5z"></path></svg>